<?xml version="1.0" encoding="UTF-8"?>
<svg width="1200pt" height="1200pt" version="1.1" viewBox="0 0 1200 1200" xmlns="http://www.w3.org/2000/svg">
 <g fill="#676767">
  <path d="m1140 0h-1080c-15.914 0-31.176 6.3203-42.426 17.574-11.254 11.25-17.574 26.512-17.574 42.426v880c0 15.914 6.3203 31.176 17.574 42.426 11.25 11.254 26.512 17.574 42.426 17.574h398c-11.781 64.559-78.422 79.641-82 80.398-20.457 0.99609-39.75 9.8125-53.895 24.625s-22.059 34.496-22.105 54.977c0 10.609 4.2148 20.781 11.715 28.285 7.5039 7.5 17.676 11.715 28.285 11.715h520c10.609 0 20.781-4.2148 28.285-11.715 7.5-7.5039 11.715-17.676 11.715-28.285-0.078125-20.473-8-40.137-22.137-54.945-14.141-14.809-33.414-23.633-53.863-24.656-3.1406-0.64063-70.281-15.059-82-80.398h398c15.914 0 31.176-6.3203 42.426-17.574 11.254-11.25 17.574-26.512 17.574-42.426v-880c0-15.914-6.3203-31.176-17.574-42.426-11.25-11.254-26.512-17.574-42.426-17.574zm-1080 40h1080c5.3047 0 10.391 2.1055 14.141 5.8594 3.7539 3.75 5.8594 8.8359 5.8594 14.141v780h-1120v-780c0-5.3047 2.1055-10.391 5.8594-14.141 3.75-3.7539 8.8359-5.8594 14.141-5.8594zm800 1120h-520c0-10.609 4.2148-20.781 11.715-28.285 7.5039-7.5 17.676-11.715 28.285-11.715h440c10.602 0.027344 20.758 4.25 28.254 11.746s11.719 17.652 11.746 28.254zm-118.36-80h-283.32c22.34-21.156 36.586-49.453 40.281-80h202.8c3.6953 30.547 17.941 58.844 40.281 80zm398.36-120h-1080c-5.3047 0-10.391-2.1055-14.141-5.8594-3.7539-3.75-5.8594-8.8359-5.8594-14.141v-60h1120v60c0 5.3047-2.1055 10.391-5.8594 14.141-3.75 3.7539-8.8359 5.8594-14.141 5.8594z"/>
  <path d="m120 800h960c10.609 0 20.781-4.2148 28.285-11.715 7.5-7.5039 11.715-17.676 11.715-28.285v-640c0-10.609-4.2148-20.781-11.715-28.285-7.5039-7.5-17.676-11.715-28.285-11.715h-960c-10.609 0-20.781 4.2148-28.285 11.715-7.5 7.5039-11.715 17.676-11.715 28.285v640c0 10.609 4.2148 20.781 11.715 28.285 7.5039 7.5 17.676 11.715 28.285 11.715zm0-680h960v640h-960z"/>
  <path d="m940 360c26.523 0 51.957-10.535 70.711-29.289 18.754-18.754 29.289-44.188 29.289-70.711s-10.535-51.957-29.289-70.711c-18.754-18.754-44.188-29.289-70.711-29.289s-51.957 10.535-70.711 29.289c-18.754 18.754-29.289 44.188-29.289 70.711 0.12891 9.5 1.6367 18.934 4.4805 28l-78 41.301c-24.395-36.742-60.266-64.375-102.01-78.594-41.75-14.215-87.027-14.215-128.78 0-41.746 14.219-77.617 41.852-102.01 78.594l-78-41.301c2.7891-9.0742 4.2461-18.508 4.3203-28 0.39844-32.113-14.461-62.508-40.047-81.922-25.582-19.41-58.859-25.535-89.676-16.508-30.82 9.0312-55.527 32.145-66.59 62.293-11.066 30.148-7.1719 63.762 10.492 90.582 17.668 26.82 47.004 43.668 79.074 45.41 32.066 1.7461 63.059-11.828 83.527-36.574l78.102 41.32h-0.003906c-19.84 48.309-19.84 102.49 0 150.8l-78.102 41.32h0.003906c-20.207-24.105-50.625-37.23-82.027-35.387s-60.078 18.438-77.32 44.746c-17.246 26.305-21.023 59.223-10.188 88.75 10.836 29.531 35.008 52.191 65.172 61.102 30.168 8.9102 62.773 3.0156 87.914-15.887 25.141-18.902 39.852-48.59 39.668-80.043-0.12891-9.5-1.6367-18.934-4.4805-28l78-41.301c24.395 36.742 60.266 64.375 102.01 78.594 41.75 14.215 87.027 14.215 128.78 0 41.746-14.219 77.617-41.852 102.01-78.594l78 41.301c-2.7891 9.0742-4.2461 18.508-4.3203 28-0.39844 32.113 14.461 62.508 40.047 81.922 25.582 19.41 58.859 25.535 89.676 16.508 30.82-9.0312 55.527-32.145 66.59-62.293 11.066-30.148 7.1719-63.762-10.492-90.582-17.668-26.82-47.004-43.668-79.074-45.41-32.066-1.7461-63.059 11.828-83.527 36.574l-78.098-41.32c19.84-48.309 19.84-102.49 0-150.8l78.102-41.32h-0.003906c18.793 23.133 46.977 36.613 76.781 36.719zm-680-40c-15.914 0-31.176-6.3203-42.426-17.574-11.254-11.25-17.574-26.512-17.574-42.426s6.3203-31.176 17.574-42.426c11.25-11.254 26.512-17.574 42.426-17.574s31.176 6.3203 42.426 17.574c11.254 11.25 17.574 26.512 17.574 42.426s-6.3203 31.176-17.574 42.426c-11.25 11.254-26.512 17.574-42.426 17.574zm0 360c-15.914 0-31.176-6.3203-42.426-17.574-11.254-11.25-17.574-26.512-17.574-42.426s6.3203-31.176 17.574-42.426c11.25-11.254 26.512-17.574 42.426-17.574s31.176 6.3203 42.426 17.574c11.254 11.25 17.574 26.512 17.574 42.426s-6.3203 31.176-17.574 42.426c-11.25 11.254-26.512 17.574-42.426 17.574zm680-120c15.914 0 31.176 6.3203 42.426 17.574 11.254 11.25 17.574 26.512 17.574 42.426s-6.3203 31.176-17.574 42.426c-11.25 11.254-26.512 17.574-42.426 17.574s-31.176-6.3203-42.426-17.574c-11.254-11.25-17.574-26.512-17.574-42.426s6.3203-31.176 17.574-42.426c11.25-11.254 26.512-17.574 42.426-17.574zm-340 40c-42.434 0-83.133-16.855-113.14-46.863-30.008-30.004-46.863-70.703-46.863-113.14s16.855-83.133 46.863-113.14c30.004-30.008 70.703-46.863 113.14-46.863s83.133 16.855 113.14 46.863c30.008 30.004 46.863 70.703 46.863 113.14-0.046875 42.422-16.922 83.09-46.914 113.09-29.996 29.992-70.664 46.867-113.09 46.914zm340-400c15.914 0 31.176 6.3203 42.426 17.574 11.254 11.25 17.574 26.512 17.574 42.426s-6.3203 31.176-17.574 42.426c-11.25 11.254-26.512 17.574-42.426 17.574s-31.176-6.3203-42.426-17.574c-11.254-11.25-17.574-26.512-17.574-42.426s6.3203-31.176 17.574-42.426c11.25-11.254 26.512-17.574 42.426-17.574z"/>
  <path d="m540 380h120c7.1445 0 13.746-3.8125 17.32-10 3.5742-6.1875 3.5742-13.812 0-20-3.5742-6.1875-10.176-10-17.32-10h-120c-7.1445 0-13.746 3.8125-17.32 10-3.5742 6.1875-3.5742 13.812 0 20 3.5742 6.1875 10.176 10 17.32 10z"/>
  <path d="m680 420h-160c-7.1445 0-13.746 3.8125-17.32 10-3.5742 6.1875-3.5742 13.812 0 20 3.5742 6.1875 10.176 10 17.32 10h160c7.1445 0 13.746-3.8125 17.32-10 3.5742-6.1875 3.5742-13.812 0-20-3.5742-6.1875-10.176-10-17.32-10z"/>
  <path d="m660 500h-120c-7.1445 0-13.746 3.8125-17.32 10-3.5742 6.1875-3.5742 13.812 0 20 3.5742 6.1875 10.176 10 17.32 10h120c7.1445 0 13.746-3.8125 17.32-10 3.5742-6.1875 3.5742-13.812 0-20-3.5742-6.1875-10.176-10-17.32-10z"/>
 </g>
</svg>
