<?xml version="1.0" encoding="UTF-8"?>
<svg width="1200pt" height="1200pt" version="1.1" viewBox="0 0 1200 1200" xmlns="http://www.w3.org/2000/svg">
 <g fill="#676767">
  <path d="m1143.8 468.75h-93.75c-4.9727 0-9.7422 1.9766-13.258 5.4922-3.5156 3.5156-5.4922 8.2852-5.4922 13.258v112.5h-37.5v-262.5c0-4.9727-1.9766-9.7422-5.4922-13.258-3.5156-3.5156-8.2852-5.4922-13.258-5.4922h-187.5v-56.25h187.5c5.5078 0.015625 10.742-2.3906 14.316-6.5781 3.5742-4.1875 5.1289-9.7383 4.2461-15.172l-18.75-112.5c-0.71484-4.4062-2.9766-8.4102-6.3789-11.297s-7.7227-4.4648-12.184-4.4531h-412.5c-4.4609-0.011719-8.7812 1.5664-12.184 4.4531s-5.6641 6.8906-6.3789 11.297l-18.75 112.5c-0.88281 5.4336 0.67188 10.984 4.2461 15.172 3.5742 4.1875 8.8086 6.5938 14.316 6.5781h150v56.25h-150c-4.3828-0.007812-8.625 1.5156-12 4.3125l-107.25 89.438h-162c-4.9727 0-9.7422 1.9766-13.258 5.4922-3.5156 3.5156-5.4922 8.2852-5.4922 13.258v187.5h-56.25v-14.25l16.688-33.562c1.3398-2.6133 2.043-5.5039 2.0625-8.4375v-131.25c0-4.9727-1.9766-9.7422-5.4922-13.258-3.5156-3.5156-8.2852-5.4922-13.258-5.4922h-112.5c-4.9727 0-9.7422 1.9766-13.258 5.4922-3.5156 3.5156-5.4922 8.2852-5.4922 13.258v131.25c0.019531 2.9336 0.72266 5.8242 2.0625 8.4375l16.688 33.562v141l-16.688 33.562c-1.3398 2.6133-2.043 5.5039-2.0625 8.4375v131.25c0 4.9727 1.9766 9.7422 5.4922 13.258 3.5156 3.5156 8.2852 5.4922 13.258 5.4922h112.5c4.9727 0 9.7422-1.9766 13.258-5.4922 3.5156-3.5156 5.4922-8.2852 5.4922-13.258v-131.25c-0.019531-2.9336-0.72266-5.8242-2.0625-8.4375l-16.688-33.562v-14.25h56.25v206.25c0 4.9727 1.9766 9.7422 5.4922 13.258 3.5156 3.5156 8.2852 5.4922 13.258 5.4922h120.38l69.562 121.88c1.6523 2.8633 4.0312 5.2344 6.8945 6.8828 2.8672 1.6445 6.1133 2.5039 9.418 2.4922h450c3.3047 0.011719 6.5508-0.84766 9.418-2.4922 2.8633-1.6484 5.2422-4.0195 6.8945-6.8828l75-131.25c1.5273-2.8945 2.3594-6.1016 2.4375-9.375v-187.5h37.5v112.5c0 4.9727 1.9766 9.7422 5.4922 13.258 3.5156 3.5156 8.2852 5.4922 13.258 5.4922h93.75c4.9727 0 9.7422-1.9766 13.258-5.4922 3.5156-3.5156 5.4922-8.2852 5.4922-13.258v-375c0-4.9727-1.9766-9.7422-5.4922-13.258-3.5156-3.5156-8.2852-5.4922-13.258-5.4922zm-993.75 89.25-16.688 33.562c-1.3398 2.6133-2.043 5.5039-2.0625 8.4375v150c0.019531 2.9336 0.72266 5.8242 2.0625 8.4375l16.688 33.562v108h-75v-108l16.688-33.562c1.3398-2.6133 2.043-5.5039 2.0625-8.4375v-150c-0.019531-2.9336-0.72266-5.8242-2.0625-8.4375l-16.688-33.562v-108h75zm75 135.75h-56.25v-37.5h56.25zm322.12-468.75 12.562-75h380.62l12.562 75zm202.88 37.5v56.25h-37.5v-56.25zm206.25 669.94-67.125 117.56h-428.25l-53.625-93.75h99v-37.5h-243.75v-468.75h150c4.3828 0.007812 8.625-1.5156 12-4.3125l107.25-89.438h424.5zm75-219.94h-37.5v-75h37.5zm93.75 131.25h-56.25v-337.5h56.25z"/>
  <path d="m450 637.5c-19.891 0-38.969 7.9023-53.031 21.969-14.066 14.062-21.969 33.141-21.969 53.031s7.9023 38.969 21.969 53.031c14.062 14.066 33.141 21.969 53.031 21.969s38.969-7.9023 53.031-21.969c14.066-14.062 21.969-33.141 21.969-53.031s-7.9023-38.969-21.969-53.031c-14.062-14.066-33.141-21.969-53.031-21.969zm0 112.5c-9.9453 0-19.484-3.9492-26.516-10.984-7.0352-7.0312-10.984-16.57-10.984-26.516s3.9492-19.484 10.984-26.516c7.0312-7.0352 16.57-10.984 26.516-10.984s19.484 3.9492 26.516 10.984c7.0352 7.0312 10.984 16.57 10.984 26.516s-3.9492 19.484-10.984 26.516c-7.0312 7.0352-16.57 10.984-26.516 10.984z"/>
  <path d="m787.5 525c0 20.711-16.789 37.5-37.5 37.5s-37.5-16.789-37.5-37.5 16.789-37.5 37.5-37.5 37.5 16.789 37.5 37.5"/>
  <path d="m543.75 918.75h75v37.5h-75z"/>
  <path d="m893.44 738.56-50.062-217.31c-0.96484-24.145-11.219-46.98-28.613-63.75-17.398-16.77-40.598-26.172-64.762-26.25-26.254 0.050781-51.258 11.227-68.812 30.75l-257.44 121.88c-42.914 8.7148-78.656 38.254-95.289 78.762-16.637 40.504-11.977 86.641 12.422 123 24.402 36.359 65.328 58.156 109.12 58.113h375c19.891 0 38.969-7.9023 53.031-21.969 14.066-14.062 21.969-33.141 21.969-53.031-0.039062-10.414-2.2734-20.699-6.5625-30.188zm-143.44-269.81c14.918 0 29.227 5.9258 39.773 16.477 10.551 10.547 16.477 24.855 16.477 39.773s-5.9258 29.227-16.477 39.773c-10.547 10.551-24.855 16.477-39.773 16.477s-29.227-5.9258-39.773-16.477c-10.551-10.547-16.477-24.855-16.477-39.773 0.042969-14.906 5.9844-29.188 16.523-39.727 10.539-10.539 24.82-16.48 39.727-16.523zm-300 337.5c-24.863 0-48.711-9.8789-66.293-27.457-17.578-17.582-27.457-41.43-27.457-66.293s9.8789-48.711 27.457-66.293c17.582-17.578 41.43-27.457 66.293-27.457s48.711 9.8789 66.293 27.457c17.578 17.582 27.457 41.43 27.457 66.293s-9.8789 48.711-27.457 66.293c-17.582 17.578-41.43 27.457-66.293 27.457zm310.5 0h-218.81c31.926-31.09 45.836-76.285 36.922-119.94-8.9141-43.66-39.43-79.785-80.984-95.871l159.75-75.75c-0.57031 3.4141-0.94531 6.8555-1.125 10.312 0 24.863 9.8789 48.711 27.457 66.293 17.582 17.578 41.43 27.457 66.293 27.457 26.855-0.0625 52.363-11.758 69.938-32.062l25.5 110.25c-6.6289-2.0156-13.508-3.0898-20.438-3.1875-19.891 0-38.969 7.9023-53.031 21.969-14.066 14.062-21.969 33.141-21.969 53.031 0.050781 13.219 3.6797 26.176 10.5 37.5zm64.5 0c-9.9453 0-19.484-3.9492-26.516-10.984-7.0352-7.0312-10.984-16.57-10.984-26.516s3.9492-19.484 10.984-26.516c7.0312-7.0352 16.57-10.984 26.516-10.984s19.484 3.9492 26.516 10.984c7.0352 7.0312 10.984 16.57 10.984 26.516s-3.9492 19.484-10.984 26.516c-7.0312 7.0352-16.57 10.984-26.516 10.984z"/>
 </g>
</svg>
