<?xml version="1.0" encoding="UTF-8"?>
<svg width="50.61" height="103" viewBox="0 0 50.61 103" version="1.1" xmlns="http://www.w3.org/2000/svg">
 <title>Binary pyramid logo: 1 and 0 columns radiating from a central pillar</title>
 
 
 <g transform="translate(25.31 97)">
  <path d="M -15.85 -69.03 H -7.71 V -67.7 H -15.85 Z" fill="#ffffff"/><path d="M -14.79 -67.7 H -8.77 V -66.55 H -14.79 Z" fill="#ffffff"/><path d="M -14.88 -66.55 H -8.68 L -9.13 -63.07 H -14.44 Z" fill="#ffffff"/><path d="M -16.48 -67.18 L -15.68 -67 L -14.98 -66.62 L -14.44 -66.06 L -14.08 -65.38 L -13.94 -64.64 L -14.02 -63.91 L -14.3 -63.25 L -14.74 -62.71 L -15.31 -62.33 L -15.95 -62.14 L -16.6 -62.14 L -17.2 -62.32 L -17.72 -62.66 L -18.11 -63.12 L -18.34 -63.66 L -18.4 -64.22 L -18.3 -64.77 L -18.05 -65.24 L -17.69 -65.61 L -17.25 -65.86 L -16.77 -65.96 L -16.3 -65.92 L -15.88 -65.75 L -15.54 -65.48 L -15.3 -65.13 L -15.18 -64.74 L -15.17 -64.35 L -15.28 -64 L -15.48 -63.7 L -15.74 -63.48 L -16.04 -63.36 L -16.35 -63.33 L -16.63 -63.39 L -16.87 -63.53 L -17.05 -63.72 L -17.16 -63.94 L -17.19 -64.17 L -17.15 -64.38 L -17.06 -64.55 L -16.93 -64.68 " fill="none" stroke="#ffffff" stroke-width="0.93" stroke-linecap="round" stroke-linejoin="round"/><path d="M -7.09 -67.18 L -7.88 -67 L -8.58 -66.62 L -9.12 -66.06 L -9.48 -65.38 L -9.62 -64.64 L -9.54 -63.91 L -9.27 -63.25 L -8.82 -62.71 L -8.25 -62.33 L -7.62 -62.14 L -6.97 -62.14 L -6.36 -62.32 L -5.84 -62.66 L -5.46 -63.12 L -5.23 -63.66 L -5.17 -64.22 L -5.27 -64.77 L -5.51 -65.24 L -5.88 -65.61 L -6.32 -65.86 L -6.79 -65.96 L -7.26 -65.92 L -7.68 -65.75 L -8.03 -65.48 L -8.26 -65.13 L -8.39 -64.74 L -8.39 -64.35 L -8.28 -64 L -8.09 -63.7 L -7.82 -63.48 L -7.52 -63.36 L -7.21 -63.33 L -6.93 -63.39 L -6.69 -63.53 L -6.51 -63.72 L -6.4 -63.94 L -6.37 -64.17 L -6.41 -64.38 L -6.5 -64.55 L -6.63 -64.68 " fill="none" stroke="#ffffff" stroke-width="0.93" stroke-linecap="round" stroke-linejoin="round"/><path d="M -14.44 -63.28 h 0.74 V -2.48 h -0.74 Z" fill="#ffffff"/><path d="M -13.29 -63.28 h 0.74 V -2.48 h -0.74 Z" fill="#ffffff"/><path d="M -12.15 -63.28 h 0.74 V -2.48 h -0.74 Z" fill="#ffffff"/><path d="M -11.01 -63.28 h 0.74 V -2.48 h -0.74 Z" fill="#ffffff"/><path d="M -9.87 -63.28 h 0.74 V -2.48 h -0.74 Z" fill="#ffffff"/><path d="M -14.79 -2.48 H -8.77 V -1.33 H -14.79 Z" fill="#ffffff"/><path d="M -15.85 -1.33 H -7.71 V 0 H -15.85 Z" fill="#ffffff"/>
  <path d="M -4.6 -91 H 4.6 V -89.5 H -4.6 Z" fill="#ffffff"/><path d="M -3.4 -89.5 H 3.4 V -88.2 H -3.4 Z" fill="#ffffff"/><path d="M -3.5 -88.2 H 3.5 L 3 -84.26 H -3 Z" fill="#ffffff"/><path d="M -5.3 -88.9 L -4.41 -88.71 L -3.62 -88.27 L -3 -87.64 L -2.6 -86.87 L -2.44 -86.04 L -2.53 -85.22 L -2.84 -84.47 L -3.34 -83.86 L -3.99 -83.43 L -4.71 -83.21 L -5.44 -83.21 L -6.13 -83.42 L -6.71 -83.8 L -7.15 -84.32 L -7.41 -84.93 L -7.48 -85.57 L -7.36 -86.18 L -7.08 -86.72 L -6.67 -87.14 L -6.18 -87.41 L -5.64 -87.53 L -5.11 -87.49 L -4.63 -87.3 L -4.24 -86.99 L -3.97 -86.59 L -3.84 -86.16 L -3.83 -85.72 L -3.95 -85.31 L -4.17 -84.97 L -4.47 -84.73 L -4.81 -84.59 L -5.16 -84.56 L -5.48 -84.63 L -5.75 -84.78 L -5.96 -85 L -6.08 -85.25 L -6.11 -85.5 L -6.07 -85.74 L -5.97 -85.94 L -5.82 -86.08 " fill="none" stroke="#ffffff" stroke-width="1.05" stroke-linecap="round" stroke-linejoin="round"/><path d="M 5.3 -88.9 L 4.41 -88.71 L 3.62 -88.27 L 3 -87.64 L 2.6 -86.87 L 2.44 -86.04 L 2.53 -85.22 L 2.84 -84.47 L 3.34 -83.86 L 3.99 -83.43 L 4.71 -83.21 L 5.44 -83.21 L 6.13 -83.42 L 6.71 -83.8 L 7.15 -84.32 L 7.41 -84.93 L 7.48 -85.57 L 7.36 -86.18 L 7.08 -86.72 L 6.67 -87.14 L 6.18 -87.41 L 5.64 -87.53 L 5.11 -87.49 L 4.63 -87.3 L 4.24 -86.99 L 3.97 -86.59 L 3.84 -86.16 L 3.83 -85.72 L 3.95 -85.31 L 4.17 -84.97 L 4.47 -84.73 L 4.81 -84.59 L 5.16 -84.56 L 5.48 -84.63 L 5.75 -84.78 L 5.96 -85 L 6.08 -85.25 L 6.11 -85.5 L 6.07 -85.74 L 5.97 -85.94 L 5.82 -86.08 " fill="none" stroke="#ffffff" stroke-width="1.05" stroke-linecap="round" stroke-linejoin="round"/><path d="M -3 -84.5 h 0.84 V -2.8 h -0.84 Z" fill="#ffffff"/><path d="M -1.71 -84.5 h 0.84 V -2.8 h -0.84 Z" fill="#ffffff"/><path d="M -0.42 -84.5 h 0.84 V -2.8 h -0.84 Z" fill="#ffffff"/><path d="M 0.87 -84.5 h 0.84 V -2.8 h -0.84 Z" fill="#ffffff"/><path d="M 2.16 -84.5 h 0.84 V -2.8 h -0.84 Z" fill="#ffffff"/><path d="M -3.4 -2.8 H 3.4 V -1.5 H -3.4 Z" fill="#ffffff"/><path d="M -4.6 -1.5 H 4.6 V 0 H -4.6 Z" fill="#ffffff"/>
  <path d="M 7.71 -69.03 H 15.85 V -67.7 H 7.71 Z" fill="#ffffff"/><path d="M 8.77 -67.7 H 14.79 V -66.55 H 8.77 Z" fill="#ffffff"/><path d="M 8.68 -66.55 H 14.88 L 14.44 -63.07 H 9.13 Z" fill="#ffffff"/><path d="M 7.09 -67.18 L 7.88 -67 L 8.58 -66.62 L 9.12 -66.06 L 9.48 -65.38 L 9.62 -64.64 L 9.54 -63.91 L 9.27 -63.25 L 8.82 -62.71 L 8.25 -62.33 L 7.62 -62.14 L 6.97 -62.14 L 6.36 -62.32 L 5.84 -62.66 L 5.46 -63.12 L 5.23 -63.66 L 5.17 -64.22 L 5.27 -64.77 L 5.51 -65.24 L 5.88 -65.61 L 6.32 -65.86 L 6.79 -65.96 L 7.26 -65.92 L 7.68 -65.75 L 8.03 -65.48 L 8.26 -65.13 L 8.39 -64.74 L 8.39 -64.35 L 8.28 -64 L 8.09 -63.7 L 7.82 -63.48 L 7.52 -63.36 L 7.21 -63.33 L 6.93 -63.39 L 6.69 -63.53 L 6.51 -63.72 L 6.4 -63.94 L 6.37 -64.17 L 6.41 -64.38 L 6.5 -64.55 L 6.63 -64.68 " fill="none" stroke="#ffffff" stroke-width="0.93" stroke-linecap="round" stroke-linejoin="round"/><path d="M 16.48 -67.18 L 15.68 -67 L 14.98 -66.62 L 14.44 -66.06 L 14.08 -65.38 L 13.94 -64.64 L 14.02 -63.91 L 14.3 -63.25 L 14.74 -62.71 L 15.31 -62.33 L 15.95 -62.14 L 16.6 -62.14 L 17.2 -62.32 L 17.72 -62.66 L 18.11 -63.12 L 18.34 -63.66 L 18.4 -64.22 L 18.3 -64.77 L 18.05 -65.24 L 17.69 -65.61 L 17.25 -65.86 L 16.77 -65.96 L 16.3 -65.92 L 15.88 -65.75 L 15.54 -65.48 L 15.3 -65.13 L 15.18 -64.74 L 15.17 -64.35 L 15.28 -64 L 15.48 -63.7 L 15.74 -63.48 L 16.04 -63.36 L 16.35 -63.33 L 16.63 -63.39 L 16.87 -63.53 L 17.05 -63.72 L 17.16 -63.94 L 17.19 -64.17 L 17.15 -64.38 L 17.06 -64.55 L 16.93 -64.68 " fill="none" stroke="#ffffff" stroke-width="0.93" stroke-linecap="round" stroke-linejoin="round"/><path d="M 9.13 -63.28 h 0.74 V -2.48 h -0.74 Z" fill="#ffffff"/><path d="M 10.27 -63.28 h 0.74 V -2.48 h -0.74 Z" fill="#ffffff"/><path d="M 11.41 -63.28 h 0.74 V -2.48 h -0.74 Z" fill="#ffffff"/><path d="M 12.55 -63.28 h 0.74 V -2.48 h -0.74 Z" fill="#ffffff"/><path d="M 13.69 -63.28 h 0.74 V -2.48 h -0.74 Z" fill="#ffffff"/><path d="M 8.77 -2.48 H 14.79 V -1.33 H 8.77 Z" fill="#ffffff"/><path d="M 7.71 -1.33 H 15.85 V 0 H 7.71 Z" fill="#ffffff"/>
 </g>
</svg>
