<?xml version="1.0" encoding="UTF-8"?>
<svg width="1200pt" height="1200pt" version="1.1" viewBox="0 0 1200 1200" xmlns="http://www.w3.org/2000/svg">
 <g fill="#676767">
  <path d="m1129.1 281.88h-132v-134.28c0-0.12109-0.12109-0.12109-0.12109-0.23828-0.12109-43.078-34.199-78.359-76.801-80.398-1.1992-0.48047-2.5195-0.71875-3.8281-0.71875h-70.922-0.12109l-506.05-0.007813c-44.52 0-80.762 36.238-80.762 80.641v259.32h-62.039-0.12109c-41.398 0-75.121 33.719-75.121 75.238v553.2l-21.477 0.003906c-21.238 0-38.641 17.398-38.641 38.762v21.719c0 21.359 17.398 38.652 38.641 38.652h946.92c21.359 0 38.762-17.281 38.762-38.652v-21.719c0-21.359-17.398-38.762-38.762-38.762h-21.48v-430.68c10.32 4.6797 21.48 7.0781 33 7.0781 44.52 0 80.652-36.121 80.762-80.52v-0.23828-238.68c0-5.4023-4.4414-9.7227-9.8438-9.7227zm-212.76-195.36c33.719 0 61.199 27.359 61.199 61.078v0.23828 143.52 0.23828 0.23828 119.52c-8.5195-3.3594-17.746-5.1602-27.48-5.1602h-0.12109-94.801l0.003906-258.47v-0.12109c0-33.719 27.48-61.078 61.199-61.078zm-648 783.72c5.3984 0 9.7188-4.4297 9.7188-9.8281v-444.49-0.12109-268.92c0-33.719 27.48-61.199 61.199-61.199h525.24c-17.641 14.879-28.922 37.078-28.922 61.801l0.003906 712.92c0 5.3984 4.3203 9.8281 9.7305 9.8281 5.3867 0 9.8281-4.4297 9.8281-9.8281l0.003906-369.24h82.922l-0.003907 478.08h-729.72v-478.08h50.16v369.24c0 5.4023 4.4414 9.8398 9.8398 9.8398zm778.32 183.96c10.559 0 19.078 8.6523 19.078 19.211v21.719c0 10.559-8.5195 19.078-19.078 19.078l-946.92 0.003907c-10.559 0-19.078-8.5195-19.078-19.078v-21.719c0-10.559 8.5195-19.211 19.078-19.211h345.12l36.84 36.961c0.48047 0.35938 0.96094 0.83984 1.5586 1.2109l0.71875 0.34766c0.35938 0.25391 0.60156 0.35938 0.96094 0.48047 0.35938 0.25391 0.60156 0.25391 0.96094 0.35938 0.35938 0.12109 0.60156 0.12109 0.83984 0.25391 0.60156 0.12109 1.3203 0.23828 1.9219 0.23828l169.08-0.003907c0.73047 0 1.3203-0.12109 1.9219-0.23828 0.25391-0.13281 0.60156-0.13281 0.83984-0.25391 0.35938-0.12109 0.71875-0.23828 0.96094-0.35938 0.35938-0.12109 0.60156-0.23828 0.96094-0.48047 0.23828-0.12109 0.48047-0.23828 0.71875-0.34766 0.60156-0.35938 1.0781-0.73047 1.5586-1.2109l36.84-36.961zm72.719-524.04v0.12109c0 33.719-27.48 61.199-61.211 61.199-11.867 0-23.16-3.3594-33-9.7188v-100.32-0.12109c0-23.641-11.039-44.762-28.078-58.559l-0.003906-121.32h122.28v228.72z"/>
  <path d="m344.64 355.2h212.04c5.3984 0 9.7188-4.4414 9.7188-9.8398v-186c0-5.3984-4.3203-9.8398-9.7188-9.8398h-212.04c-5.3984 0-9.8398 4.4414-9.8398 9.8398v186c0 5.4023 4.4375 9.8398 9.8398 9.8398zm57.48-146.64c0-3.4805 1.9219-6.6016 4.9219-8.3984 3-1.8008 6.7188-1.8008 9.7188 0l77.52 44.641c3 1.8008 4.8008 5.0391 4.8008 8.5195 0 3.4805-1.8008 6.7188-4.8008 8.3984l-77.52 44.762c-1.4414 0.83984-3.1211 1.3203-4.8008 1.3203-1.6797 0-3.3594-0.48047-4.9219-1.3203-3-1.8008-4.9219-4.9219-4.9219-8.5195z"/>
  <path d="m533.52 630.12c-5.2812 0-9.7188 4.3203-9.7188 9.7305v220.55c0 5.3984 4.4414 9.8281 9.7188 9.8281h203.76 0.12109 47.52c5.3984 0 9.7188-4.4297 9.7188-9.8281v-220.56c0-5.3984-4.3086-9.7305-9.7188-9.7305h-251.4zm241.56 220.56h-32.16l-75.238-130.32c-1.6797-3.1328-4.9062-4.9219-8.3867-4.9219-3.6133 0-6.7305 1.7891-8.5195 4.9219l-22.57 39.121-44.16-76.441c-1.8008-3-5.0391-4.9219-8.5195-4.9219-3.4805 0-6.7188 1.9219-8.3984 4.9219l-23.762 41.039v-74.398h231.72z"/>
  <path d="m724.92 733.2c18.719 0 34.078-15.238 34.078-34.078 0-18.828-15.238-34.078-34.078-34.078s-34.078 15.254-34.078 34.078c-0.003906 18.84 15.234 34.078 34.078 34.078z"/>
  <path d="m626.29 203.55h98.629c5.3867 0 9.7578-4.3789 9.7578-9.7695 0-5.3867-4.3555-9.7695-9.7578-9.7695h-98.629c-5.3867 0-9.7578 4.3789-9.7578 9.7695-0.011718 5.3906 4.3555 9.7695 9.7578 9.7695z"/>
  <path d="m626.29 262.11h152.27c5.3984 0 9.7812-4.3555 9.7812-9.7695 0-5.3867-4.3789-9.7695-9.7812-9.7695h-152.27c-5.3867 0-9.7578 4.3789-9.7578 9.7695-0.011718 5.4102 4.3555 9.7695 9.7578 9.7695z"/>
  <path d="m626.29 320.68h152.27c5.3984 0 9.7812-4.3789 9.7812-9.7578 0-5.3984-4.3789-9.7812-9.7812-9.7812l-152.27 0.003906c-5.3867 0-9.7578 4.3789-9.7578 9.7812-0.011718 5.3633 4.3555 9.7539 9.7578 9.7539z"/>
  <path d="m344.65 423.07h433.89c5.3984 0 9.7695-4.3789 9.7695-9.7695 0-5.3867-4.3672-9.7695-9.7695-9.7695l-433.89 0.003906c-5.4102 0-9.793 4.3789-9.793 9.7695 0 5.3867 4.3789 9.7656 9.793 9.7656z"/>
  <path d="m344.65 475.37h433.89c5.3984 0 9.7695-4.3789 9.7695-9.7812 0-5.3867-4.3672-9.7695-9.7695-9.7695l-433.89 0.003906c-5.4102 0-9.793 4.3789-9.793 9.7695-0.011719 5.4102 4.3789 9.7773 9.793 9.7773z"/>
  <path d="m344.65 527.68h433.89c5.3984 0 9.7695-4.3789 9.7695-9.7695 0-5.3984-4.3672-9.7695-9.7695-9.7695l-433.89 0.003906c-5.4102 0-9.793 4.3672-9.793 9.7695-0.011719 5.375 4.3789 9.7656 9.793 9.7656z"/>
  <path d="m344.65 579.97h433.89c5.3984 0 9.7695-4.3789 9.7695-9.7812 0-5.3867-4.3672-9.7578-9.7695-9.7578l-433.89 0.003906c-5.4102 0-9.793 4.3672-9.793 9.7578-0.011719 5.4102 4.3789 9.7773 9.793 9.7773z"/>
  <path d="m328.74 701.36h98.605c5.4102 0 9.793-4.3789 9.793-9.7695 0-5.4102-4.3789-9.7695-9.793-9.7695h-98.605c-5.4102 0-9.7812 4.3555-9.7812 9.7695-0.019531 5.3906 4.3594 9.7695 9.7812 9.7695z"/>
  <path d="m328.74 759.94h152.26c5.3867 0 9.7695-4.3906 9.7695-9.7695 0-5.4102-4.3789-9.7812-9.7695-9.7812h-152.26c-5.4102 0-9.7812 4.3672-9.7812 9.7812-0.019531 5.375 4.3594 9.7695 9.7812 9.7695z"/>
  <path d="m328.74 818.5h152.26c5.3867 0 9.7695-4.3672 9.7695-9.7812 0-5.3867-4.3789-9.7578-9.7695-9.7578l-152.26 0.003907c-5.4102 0-9.7812 4.3672-9.7812 9.7578-0.007812 5.4102 4.3594 9.7773 9.7812 9.7773z"/>
 </g>
</svg>
