<?xml version="1.0" encoding="UTF-8"?>
<svg width="128pt" height="128pt" version="1.1" viewBox="0 0 128 128" xmlns="http://www.w3.org/2000/svg">
 <g fill="#676767">
  <path d="m30.273 78.336c1.0234 2.7539 2.4961 5.3125 4.4805 7.5508s4.4805 3.9023 7.0391 5.1836c2.625 1.2812 5.375 2.0469 8.1289 2.5586 1.4062 0.32031 2.7539 0.38281 4.1602 0.57422 1.4062 0.0625 2.7539 0.19141 4.1602 0.19141 5.2461 0.0625 9.2812-1.6641 9.0898-2.8164-0.19141-1.2812-4.2891-1.6016-9.0898-1.6641-1.2812 0-2.5586-0.0625-3.7773-0.12891-1.2148-0.12891-2.4961-0.25781-3.7109-0.51172-2.4336-0.44922-4.8633-1.0898-6.9766-2.1758-2.1133-1.0898-4.0977-2.4336-5.6953-4.1602-1.5352-1.793-2.7539-3.7773-3.5859-6.0781-1.6641-4.543-1.8555-9.7266-1.7266-14.91 0.0625-2.625 0.19141-5.2461 0.32031-7.8711l0.19141-4.0312v-0.96094c8.5117-0.0625 16.961-0.0625 25.473-0.12891l6.5273-0.0625 3.2656-0.0625h1.6016c0.57422 0 1.2148-0.0625 1.7266-0.0625 2.2383-0.19141 4.3516-0.44922 6.3984-0.57422 1.0234-0.0625 2.0469-0.0625 2.8789 0.0625 0.25781 0 0.38281 0.0625 0.64062 0.12891 0.19141 0.0625 0.32031 0.0625 0.57422 0.19141 0.32031 0.12891 0.57422 0.19141 0.83203 0.25781h0.12891 0.0625 0.0625c0.0625-0.0625 0.0625 0.0625 0.0625 0.0625l0.12891 0.32031c0.12891 0.19141 0.12891 0.32031 0.19141 0.44922 0.0625 0.19141 0.12891 0.38281 0.19141 0.57422 0.19141 0.83203 0.25781 1.8555 0.25781 2.8789 0 2.0469-0.12891 4.1602-0.32031 6.3359-0.0625 1.0898-0.19141 2.1758-0.19141 3.3281v1.6641 1.6016c-0.0625 2.1133-0.19141 4.2227-0.44922 6.2734-0.32031 2.0469-0.76953 4.0977-1.4727 6.0781-0.70312 1.9219-1.6016 3.8398-2.8789 5.4414-2.4336 3.2656-6.1445 5.6328-10.238 6.6562-1.0898 0.25781-1.6016 0.64062-1.5352 0.96094 0.0625 0.25781 0.64062 0.38281 1.793 0.19141 1.0898-0.12891 2.1133-0.57422 3.1992-0.89453 0.51172-0.12891 1.0234-0.44922 1.5352-0.64062 0.51172-0.25781 1.0234-0.44922 1.5352-0.76953 1.9844-1.0898 3.7109-2.625 5.1836-4.2891 1.4727-1.7266 2.5586-3.7773 3.457-5.8242 0.89453-2.1133 1.4727-4.2891 1.9219-6.4648 0.38281-2.1758 0.70312-4.4141 0.83203-6.6562 0.0625-0.57422 0.0625-1.0898 0.0625-1.6641l0.0625-1.6016c0.0625-1.0234 0.19141-2.0469 0.32031-3.1367 0.25781-2.1758 0.51172-4.3516 0.57422-6.6562 0-1.1523 0-2.3047-0.25781-3.5859-0.0625-0.32031-0.12891-0.64062-0.25781-1.0234-0.12891-0.32031-0.32031-0.76953-0.44922-1.0234-0.0625-0.19141-0.12891-0.25781-0.25781-0.51172l-0.32031-0.64062c-0.12891-0.19141-0.19141-0.38281-0.32031-0.57422 0-0.0625-0.0625-0.0625-0.0625-0.12891v-0.0625c-0.0625 0.0625-0.12891 0.0625-0.25781 0-0.19141 0-0.44922-0.12891-0.64063-0.12891l-0.32031-0.12891-0.25781-0.0625c-0.25781-0.0625-0.51172-0.12891-0.70313-0.25781-0.19141-0.0625-0.64062-0.25781-0.96094-0.32031s-0.64062-0.19141-0.96094-0.19141c-1.2812-0.19141-2.4336-0.25781-3.5859-0.19141-2.3047 0.0625-4.4805 0.25781-6.5938 0.38281-0.51172 0-0.96094 0.0625-1.4727 0h-1.6016l-3.2656-0.0625-6.5273-0.0625-13.055-0.0625h-12.867c-0.25781 0-0.51172 0-0.76953 0.0625-1.2812 0.25781-2.3672 1.0898-2.8789 2.3047-0.25781 0.57422-0.32031 1.2148-0.32031 1.9219v1.0234l-0.19141 3.9023c-0.12891 2.625-0.32031 5.3125-0.32031 8-0.0625 2.6875 0 5.4414 0.25781 8.1914 0.34375 2.9453 0.78906 5.7617 1.8164 8.5117z"/>
  <path d="m93.762 99.969c-14.016-1.0898-28.031-1.6641-42.113-1.6641h-25.727c-2.0469 0-3.7109 1.0234-3.7109 2.2383 0 1.2148 1.6641 2.2383 3.7109 2.2383h25.727c14.078 0 28.16-0.57422 42.113-1.6641 0.89453-0.0625 0.89453-1.0859 0-1.1484z"/>
  <path d="m105.15 53.953c-0.89453-2.5586-2.7539-4.8008-5.0547-6.207-2.2383-1.4727-4.8633-2.0469-7.3594-2.2383-1.2148-0.0625-2.1133 0.96094-2.0469 2.2383 0.0625 1.2148 0.89453 2.2383 1.793 2.2383 1.9219 0.12891 3.7773 0.57422 5.2461 1.5352 1.4727 0.96094 2.625 2.3047 3.1992 3.9023 0.51172 1.3438 0.57422 2.7539 0.38281 4.1602-0.25781 1.4062-0.76953 2.8164-1.7266 3.9688-0.89453 1.1523-2.1758 2.1758-3.6484 2.8789-1.4727 0.70312-3.1367 1.1523-4.9297 1.4062-0.44922 0.0625-0.51172 1.0898 0 1.1523 1.8555 0.32031 3.8398 0.38281 5.7617-0.0625 1.9844-0.44922 3.9023-1.4062 5.4414-2.8789 1.6016-1.4727 2.6875-3.457 3.1992-5.5664 0.57422-2.1133 0.51172-4.418-0.25781-6.5273z"/>
  <path d="m58.496 32c0.38281 0.64062 0.57422 1.2148 0.51172 1.9219 0 0.70312-0.38281 1.6016-0.96094 2.3672-0.12891 0.19141 0.44922 1.0234 0.70312 0.89453 0.96094-0.44922 1.9844-1.1523 2.6875-2.3672 0.38281-0.57422 0.51172-1.2812 0.64062-1.9844 0.0625-0.70312 0-1.4062-0.12891-1.9844-0.25781-1.2812-0.76953-2.3047-1.2812-3.2656-0.51172-0.96094-1.0234-1.793-1.4727-2.5586-0.57422-0.96094-0.89453-1.8555-0.89453-2.4336 0-0.32031 0.0625-0.51172 0.19141-0.83203 0.12891-0.25781 0.32031-0.57422 0.64062-0.89453 0.25781-0.25781-0.0625-1.2812-0.83203-2.2383-0.76953-0.96094-1.8555-1.4062-2.3672-0.83203-0.57422 0.57422-1.0898 1.2812-1.4727 2.1133-0.38281 0.83203-0.57422 1.8555-0.57422 2.8164 0.0625 1.9219 0.83203 3.3281 1.4727 4.4805 1.0898 1.9805 2.3672 3.4531 3.1367 4.7969z"/>
  <path d="m74.879 105.92h-14.527c-7.9375 0-15.871 0.57422-23.742 1.6641-0.51172 0.0625-0.51172 1.0898 0 1.1523 7.8711 1.0898 15.809 1.6641 23.742 1.6641l14.527-0.003906c1.1523 0 2.1133-1.0234 2.1133-2.2383s-0.96094-2.2383-2.1133-2.2383z"/>
 </g>
</svg>
