<?xml version="1.0" encoding="UTF-8"?>
<!--
  Open Graph / Twitter social card — 1200x630 (the standard large-card size).
  Brand: Bytes of Purpose. Primary #2563eb, light accent #6d9bff (src/css/custom.css).
  Mark: the lightbulb-with-"<>"-filament logo (static/img/logo.svg), recolored white.
  Render to PNG: rsvg-convert -w 1200 -h 630 social-card.svg -o social-card.png
-->
<svg width="1200" height="630" viewBox="0 0 1200 630" version="1.1"
     xmlns="http://www.w3.org/2000/svg">
  <defs>
    <linearGradient id="bg" x1="0" y1="0" x2="1" y2="1">
      <stop offset="0" stop-color="#1042ae"/>
      <stop offset="0.55" stop-color="#2563eb"/>
      <stop offset="1" stop-color="#3e75ed"/>
    </linearGradient>
    <radialGradient id="glow" cx="0.78" cy="0.32" r="0.6">
      <stop offset="0" stop-color="#6d9bff" stop-opacity="0.55"/>
      <stop offset="1" stop-color="#6d9bff" stop-opacity="0"/>
    </radialGradient>
  </defs>

  <!-- Background -->
  <rect width="1200" height="630" fill="url(#bg)"/>
  <rect width="1200" height="630" fill="url(#glow)"/>

  <!-- Subtle binary texture, top-left, very low opacity -->
  <g fill="#ffffff" opacity="0.05"
     font-family="'SFMono-Regular', Menlo, Consolas, monospace" font-size="22">
    <text x="60" y="70">01000010 01111001 01110100 01100101 01110011</text>
    <text x="60" y="104">01101111 01100110 00100000 01010000 01110101</text>
    <text x="60" y="138">01110010 01110000 01101111 01110011 01100101</text>
  </g>

  <!-- Bottom accent rule -->
  <rect x="80" y="546" width="120" height="6" rx="3" fill="#6d9bff"/>

  <!-- Logo mark (from logo.svg, 0..128 viewBox), recolored white, right side -->
  <svg x="820" y="150" width="320" height="320" viewBox="0 0 128 128">
    <g fill="#ffffff">
      <path d="m84.363 82.98c7.0703-3.7109 12.988-9.2852 17.109-16.125 4.125-6.8359 6.293-14.672 6.2773-22.656-0.97656-30.258-23.359-44.07-43.75-44.098h-0.058594c-19.043 0-39.863 12.32-43.492 39.918-0.84375 8.6602 0.91406 17.375 5.0508 25.027 4.1328 7.6562 10.457 13.902 18.16 17.945 1.4531 0.77734 2.3555 2.2969 2.3398 3.9453v3.875c-1.5 0.86328-2.5547 2.332-2.8867 4.0312-0.33594 1.6992 0.085938 3.457 1.1484 4.8242-2.2812 1.168-3.5664 3.6523-3.1992 6.1875 0.36328 2.5352 2.3008 4.5586 4.8164 5.0352-1.1289 1.8516-1.1719 4.168-0.10938 6.0547 1.0625 1.8906 3.0625 3.0586 5.2305 3.0547h2.4336c1.3359 4.7305 5.6523 8 10.566 8s9.2305-3.2695 10.566-8h2.4336c2.168 0.003906 4.168-1.1641 5.2305-3.0547 1.0625-1.8867 1.0195-4.2031-0.10938-6.0547 2.5156-0.47656 4.4531-2.5 4.8164-5.0352 0.36719-2.5352-0.91797-5.0195-3.1992-6.1875 1.0625-1.3672 1.4844-3.125 1.1484-4.8242-0.33203-1.6992-1.3867-3.168-2.8867-4.0312v-3.8789c-0.011719-1.6523 0.90234-3.1797 2.3633-3.9531zm-35.363 10.02h30c1.6562 0 3 1.3438 3 3s-1.3438 3-3 3h-30c-1.6562 0-3-1.3438-3-3s1.3438-3 3-3zm15 32c-3.2578 0.007812-6.1914-1.9727-7.3984-5h14.797c-1.207 3.0273-4.1406 5.0078-7.3984 5zm13-8h-26c-1.6562 0-3-1.3438-3-3s1.3438-3 3-3h26c1.6562 0 3 1.3438 3 3s-1.3438 3-3 3zm7-12c0 1.6562-1.3438 3-3 3h-34c-1.6562 0-3-1.3438-3-3s1.3438-3 3-3h34c1.6562 0 3 1.3438 3 3zm-5-18.066v3.0664h-30v-3.0625c0.015625-2.7656-1.5039-5.3086-3.9453-6.6016-7.168-3.7617-13.055-9.5703-16.906-16.691-3.8516-7.1211-5.4961-15.23-4.7188-23.289 3.3867-25.742 22.777-37.254 40.512-37.254h0.058594c18.988 0.027344 39.844 12.93 40.754 41.148 0.007813 7.4297-2.0195 14.719-5.8594 21.078-3.8398 6.3594-9.3516 11.547-15.93 14.996-2.4492 1.2969-3.9766 3.8398-3.9648 6.6094z"/>
      <path d="m52.543 32.52c-2-1.5781-4.8906-1.2578-6.5 0.71094l-7.0938 8.8906c-1.3477 1.6797-1.3477 4.0703 0 5.75l7.0703 8.8633v0.003906c1.582 1.9961 4.4844 2.332 6.4805 0.75s2.332-4.4805 0.75-6.4766l-4.7969-6.0117 4.8008-6.0156c1.582-1.9844 1.2656-4.8711-0.71094-6.4648z"/>
      <path d="m89.047 42.113-7.0938-8.8633v0.003906c-1.5859-1.9961-4.4844-2.3281-6.4805-0.74609-1.9922 1.5859-2.3242 4.4844-0.74219 6.4805l4.8086 6.0117-4.8086 6.0078c-1.582 1.9805-1.2695 4.8672 0.69922 6.4648 1.9961 1.582 4.8906 1.2695 6.5-0.69922l7.1133-8.8906c1.3594-1.6836 1.3594-4.0859 0.003906-5.7695z"/>
      <path d="m67.062 31.645c-1.1797-0.29688-2.4336-0.10547-3.4688 0.53516-1.0391 0.64062-1.7695 1.6758-2.0312 2.8672l-0.007812 0.03125-4.0664 17.738c-0.30078 1.3516 0.015625 2.7695 0.85938 3.8672 0.84766 1.0977 2.1367 1.7617 3.5234 1.8164 2.1914 0.054688 4.1172-1.4453 4.5977-3.5859l4.082-17.812c0.28125-1.1875 0.070313-2.4414-0.58594-3.4688-0.66016-1.0273-1.707-1.7461-2.9023-1.9883z"/>
      <path d="m126.5 43.5h-9c-0.82812 0-1.5 0.67188-1.5 1.5s0.67188 1.5 1.5 1.5h9c0.82812 0 1.5-0.67188 1.5-1.5s-0.67188-1.5-1.5-1.5z"/>
      <path d="m112.56 26.562 7-7c0.58594-0.58594 0.58594-1.5391 0-2.125s-1.5391-0.58594-2.125 0l-7 7c-0.58594 0.58594-0.58594 1.5391 0 2.125s1.5391 0.58594 2.125 0z"/>
      <path d="m110.44 65.562 7 7c0.58594 0.58594 1.5391 0.58594 2.125 0s0.58594-1.5391 0-2.125l-7-7c-0.58594-0.58594-1.5391-0.58594-2.125 0s-0.58594 1.5391 0 2.125z"/>
      <path d="m0 45c0 0.82812 0.67188 1.5 1.5 1.5h9c0.82812 0 1.5-0.67188 1.5-1.5s-0.67188-1.5-1.5-1.5h-9c-0.82812 0-1.5 0.67188-1.5 1.5z"/>
      <path d="m17.562 24.438-7-7c-0.58594-0.58594-1.5391-0.58594-2.125 0s-0.58594 1.5391 0 2.125l7 7c0.58594 0.58594 1.5391 0.58594 2.125 0s0.58594-1.5391 0-2.125z"/>
      <path d="m15.438 63.438-7 7c-0.58594 0.58594-0.58594 1.5391 0 2.125s1.5391 0.58594 2.125 0l7-7c0.58594-0.58594 0.58594-1.5391 0-2.125s-1.5391-0.58594-2.125 0z"/>
    </g>
  </svg>

  <!-- Wordmark + tagline, left -->
  <g font-family="'Inter', 'Helvetica Neue', Arial, sans-serif">
    <text x="80" y="300" fill="#ffffff" font-size="92" font-weight="800"
          letter-spacing="-2">Bytes of Purpose</text>
    <text x="82" y="372" fill="#dce8ff" font-size="40" font-weight="500">
      Purposeful code, one byte at a time.</text>
    <text x="82" y="600" fill="#aecbff" font-size="30" font-weight="600"
          letter-spacing="0.5">blog.bytesofpurpose.com</text>
  </g>
</svg>
